<svg xmlns="http://www.w3.org/2000/svg" viewBox="0 0 64 64" width="64" height="64">
  <rect width="64" height="64" rx="15" fill="#00373e"/>
  <g transform="translate(32 32)">
    <g fill="#ee6c4d">
      <ellipse cx="0" cy="-13" rx="5" ry="13"/>
      <ellipse cx="0" cy="-13" rx="5" ry="13" transform="rotate(45)"/>
      <ellipse cx="0" cy="-13" rx="5" ry="13" transform="rotate(90)"/>
      <ellipse cx="0" cy="-13" rx="5" ry="13" transform="rotate(135)"/>
      <ellipse cx="0" cy="-13" rx="5" ry="13" transform="rotate(180)"/>
      <ellipse cx="0" cy="-13" rx="5" ry="13" transform="rotate(225)"/>
      <ellipse cx="0" cy="-13" rx="5" ry="13" transform="rotate(270)"/>
      <ellipse cx="0" cy="-13" rx="5" ry="13" transform="rotate(315)"/>
    </g>
    <g fill="#ffd49a">
      <ellipse cx="0" cy="-8" rx="3.3" ry="8" transform="rotate(22.5)"/>
      <ellipse cx="0" cy="-8" rx="3.3" ry="8" transform="rotate(67.5)"/>
      <ellipse cx="0" cy="-8" rx="3.3" ry="8" transform="rotate(112.5)"/>
      <ellipse cx="0" cy="-8" rx="3.3" ry="8" transform="rotate(157.5)"/>
      <ellipse cx="0" cy="-8" rx="3.3" ry="8" transform="rotate(202.5)"/>
      <ellipse cx="0" cy="-8" rx="3.3" ry="8" transform="rotate(247.5)"/>
      <ellipse cx="0" cy="-8" rx="3.3" ry="8" transform="rotate(292.5)"/>
      <ellipse cx="0" cy="-8" rx="3.3" ry="8" transform="rotate(337.5)"/>
    </g>
    <circle cx="0" cy="0" r="4.6" fill="#fff"/>
  </g>
</svg>
